<svg width="120" height="84" viewBox="0 0 120 84" fill="none" xmlns="http://www.w3.org/2000/svg">
<path d="M13.68 67.7758C16.056 68.3998 18.54 68.7118 21.132 68.7118C25.14 68.7118 28.656 68.0518 31.68 66.7318C34.704 65.4118 37.068 63.5878 38.772 61.2598C40.5 58.9318 41.364 56.2558 41.364 53.2318C41.364 50.9278 40.908 48.8278 39.996 46.9318C39.108 45.0118 37.68 43.3558 35.712 41.9638C33.744 40.5718 31.14 39.5398 27.9 38.8678L18.216 36.5998C15.696 35.9998 13.824 35.1598 12.6 34.0798C11.376 32.9998 10.764 31.5358 10.764 29.6878C10.764 27.7198 11.592 26.0038 13.248 24.5398C14.904 23.0758 17.436 22.3438 20.844 22.3438C22.764 22.3438 24.516 22.6198 26.1 23.1718C27.684 23.7238 28.992 24.6118 30.024 25.8358C31.056 27.0358 31.668 28.6798 31.86 30.7678H40.716C40.692 27.9598 39.924 25.3798 38.412 23.0278C36.9 20.6758 34.692 18.8038 31.788 17.4118C28.884 15.9958 25.32 15.2878 21.096 15.2878C17.4 15.2878 14.076 15.9118 11.124 17.1598C8.172 18.3838 5.832 20.1358 4.104 22.4158C2.4 24.6958 1.548 27.3958 1.548 30.5158C1.548 33.2518 2.088 35.5678 3.168 37.4638C4.248 39.3358 5.76 40.8478 7.704 41.9998C9.672 43.1518 11.976 44.0278 14.616 44.6278L24.804 47.0398C27.276 47.6638 29.172 48.5158 30.492 49.5958C31.836 50.6518 32.508 52.1278 32.508 54.0238C32.508 55.7038 31.992 57.1198 30.96 58.2718C29.928 59.3998 28.584 60.2518 26.928 60.8278C25.272 61.4038 23.484 61.6918 21.564 61.6918C19.404 61.6918 17.448 61.3798 15.696 60.7558C13.944 60.1318 12.492 59.2198 11.34 58.0198C10.212 56.8198 9.456 55.3438 9.072 53.5918H0C0.288 56.1118 1.068 58.3198 2.34 60.2158C3.612 62.0878 5.22 63.6598 7.164 64.9318C9.132 66.1798 11.304 67.1278 13.68 67.7758Z" fill="black"/>
<path d="M64.1227 0L47.3641 84H53.4911L70.2498 0H64.1227Z" fill="black"/>
<path d="M92.928 45.9959V68.0279H101.676V46.0319L119.568 15.9719H109.992L97.356 38.3639L84.504 15.9719H75L92.928 45.9959Z" fill="black"/>
</svg>
