<svg width="16" height="16" fill="none" xmlns="http://www.w3.org/2000/svg"><path fill-rule="evenodd" clip-rule="evenodd" d="M2 3.5a.5.5 0 0 1 .5-.5h11a.5.5 0 0 1 0 1h-11a.5.5 0 0 1-.5-.5ZM6.5 6a.5.5 0 0 1 .5.5v4a.5.5 0 0 1-1 0v-4a.5.5 0 0 1 .5-.5ZM9.5 6a.5.5 0 0 1 .5.5v4a.5.5 0 0 1-1 0v-4a.5.5 0 0 1 .5-.5Z" fill="#1E1E1E"/><path fill-rule="evenodd" clip-rule="evenodd" d="M3.5 3a.5.5 0 0 1 .5.5V13h8V3.5a.5.5 0 0 1 1 0V13a1 1 0 0 1-1 1H4a1 1 0 0 1-1-1V3.5a.5.5 0 0 1 .5-.5Z" fill="#1E1E1E"/><path fill-rule="evenodd" clip-rule="evenodd" d="M5.44 1.44A1.5 1.5 0 0 1 6.5 1h3A1.5 1.5 0 0 1 11 2.5v1a.5.5 0 0 1-1 0v-1a.5.5 0 0 0-.5-.5h-3a.5.5 0 0 0-.5.5v1a.5.5 0 0 1-1 0v-1c0-.398.158-.78.44-1.06Z" fill="#1E1E1E"/></svg>