<svg fill="none" height="24" width="24" xmlns="http://www.w3.org/2000/svg"><g fill="#383838"><path d="M14.784 14.786a7.504 7.504 0 0 0-5.568 0c.766.604 1.733.964 2.784.964s2.018-.36 2.784-.965z"/><path clip-rule="evenodd" d="M3.75 12a8.25 8.25 0 1 1 14.416 5.48 7.5 7.5 0 0 0-3.382-2.695 4.5 4.5 0 1 0-5.568 0 7.49 7.49 0 0 0-3.383 2.695A8.219 8.219 0 0 1 3.75 12zm3.194 6.52a8.303 8.303 0 0 1-1.11-1.04c-.193.279-.367.57-.522.874a.75.75 0 0 0 .127.858A9.725 9.725 0 0 1 2.25 12c0-5.385 4.365-9.75 9.75-9.75s9.75 4.365 9.75 9.75a9.725 9.725 0 0 1-3.27 7.286A9.714 9.714 0 0 1 12 21.75a9.713 9.713 0 0 1-6.478-2.463.75.75 0 0 0 1.128-.254c.09-.176.188-.348.294-.514zM12 15.75a6 6 0 0 1 5.056 2.77c-1.396 1.084-3.15 1.73-5.056 1.73s-3.66-.646-5.056-1.73A6 6 0 0 1 12 15.75zm0 0a4.48 4.48 0 0 0 2.784-.964A7.504 7.504 0 0 0 12 14.25a3 3 0 1 0 0-6 3 3 0 0 0 0 6c-.958 0-1.902.183-2.784.536A4.481 4.481 0 0 0 12 15.75zm-6.561 3.462z" fill-rule="evenodd"/><path d="M5.642 19.363a.75.75 0 0 0 1.008-.33c.09-.176.188-.348.294-.514a8.303 8.303 0 0 1-1.11-1.038c-.193.278-.367.57-.522.873a.75.75 0 0 0 .33 1.009z"/></g></svg>