<svg width="24" height="24" fill="none" xmlns="http://www.w3.org/2000/svg"><path fill-rule="evenodd" clip-rule="evenodd" d="M3 5.25a.75.75 0 0 1 .75-.75h16.5a.75.75 0 0 1 0 1.5H3.75A.75.75 0 0 1 3 5.25ZM9.75 9a.75.75 0 0 1 .75.75v6a.75.75 0 0 1-1.5 0v-6A.75.75 0 0 1 9.75 9ZM14.25 9a.75.75 0 0 1 .75.75v6a.75.75 0 0 1-1.5 0v-6a.75.75 0 0 1 .75-.75Z" fill="#1E1E1E"/><path fill-rule="evenodd" clip-rule="evenodd" d="M5.25 4.5a.75.75 0 0 1 .75.75V19.5h12V5.25a.75.75 0 0 1 1.5 0V19.5A1.5 1.5 0 0 1 18 21H6a1.5 1.5 0 0 1-1.5-1.5V5.25a.75.75 0 0 1 .75-.75Z" fill="#1E1E1E"/><path fill-rule="evenodd" clip-rule="evenodd" d="M8.159 2.159A2.25 2.25 0 0 1 9.75 1.5h4.5a2.25 2.25 0 0 1 2.25 2.25v1.5a.75.75 0 0 1-1.5 0v-1.5a.75.75 0 0 0-.75-.75h-4.5a.75.75 0 0 0-.75.75v1.5a.75.75 0 0 1-1.5 0v-1.5c0-.597.237-1.169.659-1.591Z" fill="#1E1E1E"/></svg>