<svg width="24" height="25" fill="none" xmlns="http://www.w3.org/2000/svg"><path d="M12 10.749a.75.75 0 0 1 .75.75v1.875h1.875a.75.75 0 0 1 0 1.5H12.75v1.875a.75.75 0 0 1-1.5 0v-1.875H9.375a.75.75 0 0 1 0-1.5h1.875v-1.875a.75.75 0 0 1 .75-.75Z" fill="#1E1E1E"/><path fill-rule="evenodd" clip-rule="evenodd" d="M8.818 4.193a4.5 4.5 0 0 0-1.255 2.432H3.08A1.5 1.5 0 0 0 1.6 8.293l1.33 11.998.001.01a1.51 1.51 0 0 0 1.491 1.322h15.156a1.51 1.51 0 0 0 1.49-1.323l1.333-12.007v-.002a1.499 1.499 0 0 0-1.482-1.666h-4.483a4.5 4.5 0 0 0-7.618-2.432ZM12 4.375a3 3 0 0 0-2.905 2.25h5.81A3 3 0 0 0 12 4.375Zm7.571 15.748a.01.01 0 0 0 .006-.002l.001-.001v-.001l.002-.003 1.33-11.992H3.09v.002l1.33 11.99.003.005a.01.01 0 0 0 .006.002H19.57Z" fill="#1E1E1E"/></svg>