<svg width="24" height="24" fill="none" xmlns="http://www.w3.org/2000/svg"><path fill-rule="evenodd" clip-rule="evenodd" d="M7.563 6a4.5 4.5 0 0 1 8.873 0h4.483a1.5 1.5 0 0 1 1.482 1.666v.002l-1.332 12.007a1.51 1.51 0 0 1-1.491 1.323H4.422a1.51 1.51 0 0 1-1.49-1.323l-.002-.01L1.6 7.669a1.504 1.504 0 0 1 .87-1.535A1.5 1.5 0 0 1 3.08 6h4.483Zm2.315-1.372A3 3 0 0 1 14.904 6H9.095a3 3 0 0 1 .783-1.372Zm9.699 14.868a.01.01 0 0 1-.006.002H4.43a.01.01 0 0 1-.006-.002l-.003-.005-1.33-11.99V7.5h17.82l-1.33 11.992-.001.003-.002.002Z" fill="#1E1E1E"/></svg>